# xmcd
#
# Track frame offsets: 
#        150
#        20226
#        39930
#        62788
#        83356
#        102041
#        119698
#        139161
#        153665
#        173794
#
# Disc length: 2603 seconds
#
# Revision: 0
# Processed by: cddbd v1.5.2PL0 Copyright (c) Steve Scherf et al.
# Submitted via: ExactAudioCopy v1.0b4
#
DISCID=7f0a290a
DTITLE=Tomas Doncker Band - Big Apple Blues
DYEAR=2014
DGENRE=Blues
TTITLE0=Big Apple Blues
TTITLE1=Can't Say No
TTITLE2=The New Day
TTITLE3=Hellfighters Of Harlem
TTITLE4=At This Midnight Hour
TTITLE5=Little Blue Room
TTITLE6=Coney Island
TTITLE7=That Horse
TTITLE8=Ground Zero
TTITLE9=Fun City
EXTD=
EXTT0=
EXTT1=
EXTT2=
EXTT3=
EXTT4=
EXTT5=
EXTT6=
EXTT7=
EXTT8=
EXTT9=
PLAYORDER=
